<mxfile host="app.diagrams.net" agent="Mozilla/5.0 (Windows NT 10.0; Win64; x64; rv:136.0) Gecko/20100101 Firefox/136.0" version="26.1.0">
  <diagram id="C5RBs43oDa-KdzZeNtuy" name="Page-1">
    <mxGraphModel dx="1880" dy="746" grid="1" gridSize="10" guides="1" tooltips="1" connect="1" arrows="1" fold="1" page="1" pageScale="1" pageWidth="827" pageHeight="1169" math="0" shadow="0">
      <root>
        <mxCell id="WIyWlLk6GJQsqaUBKTNV-0" />
        <mxCell id="WIyWlLk6GJQsqaUBKTNV-1" parent="WIyWlLk6GJQsqaUBKTNV-0" />
        <mxCell id="mLHMy1PkklrBWdONY-Xj-1" value="Facturation" style="whiteSpace=wrap;strokeWidth=2;verticalAlign=top;fillColor=#ffe6cc;strokeColor=#d79b00;fontSize=14;fontFamily=Verdana;fontStyle=1" vertex="1" parent="WIyWlLk6GJQsqaUBKTNV-1">
          <mxGeometry x="506" y="1055" width="1330" height="289" as="geometry" />
        </mxCell>
        <mxCell id="mLHMy1PkklrBWdONY-Xj-2" value="Génération facture" style="whiteSpace=wrap;strokeWidth=2;fontSize=14;fontFamily=Verdana;" vertex="1" parent="mLHMy1PkklrBWdONY-Xj-1">
          <mxGeometry x="46" y="147" width="197" height="54" as="geometry" />
        </mxCell>
        <mxCell id="mLHMy1PkklrBWdONY-Xj-3" value="Consultation facture" style="whiteSpace=wrap;strokeWidth=2;fontSize=14;fontFamily=Verdana;" vertex="1" parent="mLHMy1PkklrBWdONY-Xj-1">
          <mxGeometry x="318" y="147" width="207" height="54" as="geometry" />
        </mxCell>
        <mxCell id="mLHMy1PkklrBWdONY-Xj-4" value="Ajustements?" style="rhombus;strokeWidth=2;whiteSpace=wrap;fontSize=14;fontFamily=Verdana;" vertex="1" parent="mLHMy1PkklrBWdONY-Xj-1">
          <mxGeometry x="599" y="99" width="149" height="149" as="geometry" />
        </mxCell>
        <mxCell id="mLHMy1PkklrBWdONY-Xj-5" value="Application remise" style="whiteSpace=wrap;strokeWidth=2;fontSize=14;fontFamily=Verdana;" vertex="1" parent="mLHMy1PkklrBWdONY-Xj-1">
          <mxGeometry x="861" y="43" width="194" height="54" as="geometry" />
        </mxCell>
        <mxCell id="mLHMy1PkklrBWdONY-Xj-6" value="Ajustements manuels" style="whiteSpace=wrap;strokeWidth=2;fontSize=14;fontFamily=Verdana;" vertex="1" parent="mLHMy1PkklrBWdONY-Xj-1">
          <mxGeometry x="852" y="147" width="213" height="54" as="geometry" />
        </mxCell>
        <mxCell id="mLHMy1PkklrBWdONY-Xj-7" value="Facture finale" style="whiteSpace=wrap;strokeWidth=2;fontSize=14;fontFamily=Verdana;" vertex="1" parent="mLHMy1PkklrBWdONY-Xj-1">
          <mxGeometry x="1140" y="147" width="161" height="54" as="geometry" />
        </mxCell>
        <mxCell id="mLHMy1PkklrBWdONY-Xj-8" value="" style="curved=1;startArrow=none;endArrow=block;exitX=1;exitY=0.5;entryX=0;entryY=0.5;rounded=0;fontSize=14;fontFamily=Verdana;" edge="1" parent="mLHMy1PkklrBWdONY-Xj-1" source="mLHMy1PkklrBWdONY-Xj-2" target="mLHMy1PkklrBWdONY-Xj-3">
          <mxGeometry relative="1" as="geometry">
            <Array as="points" />
          </mxGeometry>
        </mxCell>
        <mxCell id="mLHMy1PkklrBWdONY-Xj-9" value="" style="curved=1;startArrow=none;endArrow=block;exitX=1;exitY=0.5;entryX=0;entryY=0.5;rounded=0;fontSize=14;fontFamily=Verdana;" edge="1" parent="mLHMy1PkklrBWdONY-Xj-1" source="mLHMy1PkklrBWdONY-Xj-3" target="mLHMy1PkklrBWdONY-Xj-4">
          <mxGeometry relative="1" as="geometry">
            <Array as="points" />
          </mxGeometry>
        </mxCell>
        <mxCell id="mLHMy1PkklrBWdONY-Xj-10" value="Oui" style="curved=1;startArrow=none;endArrow=block;exitX=1;exitY=0.09;entryX=0;entryY=0.5;rounded=0;fontSize=14;fontFamily=Verdana;" edge="1" parent="mLHMy1PkklrBWdONY-Xj-1" source="mLHMy1PkklrBWdONY-Xj-4" target="mLHMy1PkklrBWdONY-Xj-5">
          <mxGeometry relative="1" as="geometry">
            <Array as="points">
              <mxPoint x="800" y="70" />
            </Array>
          </mxGeometry>
        </mxCell>
        <mxCell id="mLHMy1PkklrBWdONY-Xj-11" value="Oui" style="curved=1;startArrow=none;endArrow=block;exitX=1;exitY=0.5;entryX=0;entryY=0.5;rounded=0;fontSize=14;fontFamily=Verdana;" edge="1" parent="mLHMy1PkklrBWdONY-Xj-1" source="mLHMy1PkklrBWdONY-Xj-4" target="mLHMy1PkklrBWdONY-Xj-6">
          <mxGeometry relative="1" as="geometry">
            <Array as="points" />
          </mxGeometry>
        </mxCell>
        <mxCell id="mLHMy1PkklrBWdONY-Xj-12" value="" style="curved=1;startArrow=none;endArrow=block;exitX=1;exitY=0.5;entryX=0.31;entryY=0;rounded=0;fontSize=14;fontFamily=Verdana;" edge="1" parent="mLHMy1PkklrBWdONY-Xj-1" source="mLHMy1PkklrBWdONY-Xj-5" target="mLHMy1PkklrBWdONY-Xj-7">
          <mxGeometry relative="1" as="geometry">
            <Array as="points">
              <mxPoint x="1102" y="70" />
            </Array>
          </mxGeometry>
        </mxCell>
        <mxCell id="mLHMy1PkklrBWdONY-Xj-13" value="" style="curved=1;startArrow=none;endArrow=block;exitX=1;exitY=0.5;entryX=0;entryY=0.5;rounded=0;fontSize=14;fontFamily=Verdana;" edge="1" parent="mLHMy1PkklrBWdONY-Xj-1" source="mLHMy1PkklrBWdONY-Xj-6" target="mLHMy1PkklrBWdONY-Xj-7">
          <mxGeometry relative="1" as="geometry">
            <Array as="points" />
          </mxGeometry>
        </mxCell>
        <mxCell id="mLHMy1PkklrBWdONY-Xj-14" value="Non" style="curved=1;startArrow=none;endArrow=block;exitX=1;exitY=0.8;entryX=0.24;entryY=1;rounded=0;fontSize=14;fontFamily=Verdana;" edge="1" parent="mLHMy1PkklrBWdONY-Xj-1" source="mLHMy1PkklrBWdONY-Xj-4" target="mLHMy1PkklrBWdONY-Xj-7">
          <mxGeometry relative="1" as="geometry">
            <Array as="points">
              <mxPoint x="800" y="250" />
              <mxPoint x="1102" y="250" />
            </Array>
          </mxGeometry>
        </mxCell>
        <mxCell id="mLHMy1PkklrBWdONY-Xj-15" value="Gestion_Livraisons" style="whiteSpace=wrap;strokeWidth=2;verticalAlign=top;fillColor=#fff2cc;strokeColor=#d6b656;fontSize=14;fontFamily=Verdana;fontStyle=1" vertex="1" parent="WIyWlLk6GJQsqaUBKTNV-1">
          <mxGeometry x="430" y="738" width="1480" height="267" as="geometry" />
        </mxCell>
        <mxCell id="mLHMy1PkklrBWdONY-Xj-16" value="Demande livraison" style="whiteSpace=wrap;strokeWidth=2;fontSize=14;fontFamily=Verdana;" vertex="1" parent="mLHMy1PkklrBWdONY-Xj-15">
          <mxGeometry x="50" y="44" width="180" height="54" as="geometry" />
        </mxCell>
        <mxCell id="mLHMy1PkklrBWdONY-Xj-17" value="Saisie informations logistiques" style="whiteSpace=wrap;strokeWidth=2;fontSize=14;fontFamily=Verdana;" vertex="1" parent="mLHMy1PkklrBWdONY-Xj-15">
          <mxGeometry x="270" y="32" width="200" height="78" as="geometry" />
        </mxCell>
        <mxCell id="mLHMy1PkklrBWdONY-Xj-18" value="Saisie informations financières" style="whiteSpace=wrap;strokeWidth=2;fontSize=14;fontFamily=Verdana;" vertex="1" parent="mLHMy1PkklrBWdONY-Xj-15">
          <mxGeometry x="270" y="154" width="200" height="78" as="geometry" />
        </mxCell>
        <mxCell id="mLHMy1PkklrBWdONY-Xj-19" value="Validation?" style="rhombus;strokeWidth=2;whiteSpace=wrap;fontSize=14;fontFamily=Verdana;" vertex="1" parent="mLHMy1PkklrBWdONY-Xj-15">
          <mxGeometry x="580" y="82" width="120" height="131" as="geometry" />
        </mxCell>
        <mxCell id="mLHMy1PkklrBWdONY-Xj-20" value="Livraison validée" style="whiteSpace=wrap;strokeWidth=2;fontSize=14;fontFamily=Verdana;" vertex="1" parent="mLHMy1PkklrBWdONY-Xj-15">
          <mxGeometry x="811.0014248479582" y="62" width="115.72545612510862" height="54" as="geometry" />
        </mxCell>
        <mxCell id="mLHMy1PkklrBWdONY-Xj-21" value="Refus demande" style="whiteSpace=wrap;strokeWidth=2;fontSize=14;fontFamily=Verdana;" vertex="1" parent="mLHMy1PkklrBWdONY-Xj-15">
          <mxGeometry x="810.9960208514335" y="166" width="108.65334491746309" height="54" as="geometry" />
        </mxCell>
        <mxCell id="mLHMy1PkklrBWdONY-Xj-22" value="Suivi livraisons en cours" style="whiteSpace=wrap;strokeWidth=2;fontSize=14;fontFamily=Verdana;" vertex="1" parent="mLHMy1PkklrBWdONY-Xj-15">
          <mxGeometry x="1010" y="62" width="160" height="54" as="geometry" />
        </mxCell>
        <mxCell id="mLHMy1PkklrBWdONY-Xj-23" value="Livraison terminée" style="whiteSpace=wrap;strokeWidth=2;fontSize=14;fontFamily=Verdana;" vertex="1" parent="mLHMy1PkklrBWdONY-Xj-15">
          <mxGeometry x="1010" y="166" width="160.12" height="54" as="geometry" />
        </mxCell>
        <mxCell id="mLHMy1PkklrBWdONY-Xj-24" value="Suivi livraisons passées" style="whiteSpace=wrap;strokeWidth=2;fontSize=14;fontFamily=Verdana;" vertex="1" parent="mLHMy1PkklrBWdONY-Xj-15">
          <mxGeometry x="1240" y="166" width="204.01" height="54" as="geometry" />
        </mxCell>
        <mxCell id="mLHMy1PkklrBWdONY-Xj-25" value="" style="curved=1;startArrow=none;endArrow=block;exitX=1;exitY=0.51;entryX=0;entryY=0.5;rounded=0;fontSize=14;fontFamily=Verdana;" edge="1" parent="mLHMy1PkklrBWdONY-Xj-15" source="mLHMy1PkklrBWdONY-Xj-16" target="mLHMy1PkklrBWdONY-Xj-17">
          <mxGeometry relative="1" as="geometry">
            <Array as="points" />
          </mxGeometry>
        </mxCell>
        <mxCell id="mLHMy1PkklrBWdONY-Xj-26" value="" style="curved=1;startArrow=none;endArrow=block;exitX=0.5;exitY=1;entryX=0.5;entryY=0;rounded=0;exitDx=0;exitDy=0;entryDx=0;entryDy=0;fontSize=14;fontFamily=Verdana;" edge="1" parent="mLHMy1PkklrBWdONY-Xj-15" source="mLHMy1PkklrBWdONY-Xj-17" target="mLHMy1PkklrBWdONY-Xj-18">
          <mxGeometry relative="1" as="geometry">
            <Array as="points" />
          </mxGeometry>
        </mxCell>
        <mxCell id="mLHMy1PkklrBWdONY-Xj-27" value="" style="curved=1;startArrow=none;endArrow=block;exitX=1;exitY=0.5;entryX=0;entryY=0.5;rounded=0;fontSize=14;fontFamily=Verdana;" edge="1" parent="mLHMy1PkklrBWdONY-Xj-15" source="mLHMy1PkklrBWdONY-Xj-18" target="mLHMy1PkklrBWdONY-Xj-19">
          <mxGeometry relative="1" as="geometry">
            <Array as="points" />
          </mxGeometry>
        </mxCell>
        <mxCell id="mLHMy1PkklrBWdONY-Xj-28" value="Oui" style="curved=1;startArrow=none;endArrow=block;exitX=1;exitY=0.28;entryX=0;entryY=0.51;rounded=0;fontSize=14;fontFamily=Verdana;" edge="1" parent="mLHMy1PkklrBWdONY-Xj-15" source="mLHMy1PkklrBWdONY-Xj-19" target="mLHMy1PkklrBWdONY-Xj-20">
          <mxGeometry relative="1" as="geometry">
            <Array as="points">
              <mxPoint x="750.2867072111209" y="89" />
            </Array>
          </mxGeometry>
        </mxCell>
        <mxCell id="mLHMy1PkklrBWdONY-Xj-29" value="Non" style="curved=1;startArrow=none;endArrow=block;exitX=1;exitY=0.72;entryX=0;entryY=0.51;rounded=0;fontSize=14;fontFamily=Verdana;" edge="1" parent="mLHMy1PkklrBWdONY-Xj-15" source="mLHMy1PkklrBWdONY-Xj-19" target="mLHMy1PkklrBWdONY-Xj-21">
          <mxGeometry relative="1" as="geometry">
            <Array as="points">
              <mxPoint x="750.2867072111209" y="193" />
            </Array>
          </mxGeometry>
        </mxCell>
        <mxCell id="mLHMy1PkklrBWdONY-Xj-30" value="" style="curved=1;startArrow=none;endArrow=block;exitX=1;exitY=0.51;entryX=0;entryY=0.51;rounded=0;fontSize=14;fontFamily=Verdana;" edge="1" parent="mLHMy1PkklrBWdONY-Xj-15" source="mLHMy1PkklrBWdONY-Xj-20" target="mLHMy1PkklrBWdONY-Xj-22">
          <mxGeometry relative="1" as="geometry">
            <Array as="points" />
          </mxGeometry>
        </mxCell>
        <mxCell id="mLHMy1PkklrBWdONY-Xj-31" value="" style="curved=1;startArrow=none;endArrow=block;exitX=0.5;exitY=1;entryX=0.5;entryY=0;rounded=0;exitDx=0;exitDy=0;entryDx=0;entryDy=0;fontSize=14;fontFamily=Verdana;" edge="1" parent="mLHMy1PkklrBWdONY-Xj-15" source="mLHMy1PkklrBWdONY-Xj-22" target="mLHMy1PkklrBWdONY-Xj-23">
          <mxGeometry relative="1" as="geometry">
            <Array as="points" />
          </mxGeometry>
        </mxCell>
        <mxCell id="mLHMy1PkklrBWdONY-Xj-32" value="" style="curved=1;startArrow=none;endArrow=block;exitX=1;exitY=0.5;entryX=0;entryY=0.51;rounded=0;exitDx=0;exitDy=0;fontSize=14;fontFamily=Verdana;" edge="1" parent="mLHMy1PkklrBWdONY-Xj-15" source="mLHMy1PkklrBWdONY-Xj-23" target="mLHMy1PkklrBWdONY-Xj-24">
          <mxGeometry relative="1" as="geometry">
            <Array as="points" />
          </mxGeometry>
        </mxCell>
        <mxCell id="mLHMy1PkklrBWdONY-Xj-33" value="Gestion_Compte" style="whiteSpace=wrap;strokeWidth=2;verticalAlign=top;fillColor=#e1d5e7;strokeColor=#9673a6;fontSize=14;fontFamily=Verdana;fontStyle=1" vertex="1" parent="WIyWlLk6GJQsqaUBKTNV-1">
          <mxGeometry x="430" y="450" width="1482" height="238" as="geometry" />
        </mxCell>
        <mxCell id="mLHMy1PkklrBWdONY-Xj-34" value="Création compte" style="whiteSpace=wrap;strokeWidth=2;fontSize=14;fontFamily=Verdana;" vertex="1" parent="mLHMy1PkklrBWdONY-Xj-33">
          <mxGeometry x="46" y="157" width="180" height="54" as="geometry" />
        </mxCell>
        <mxCell id="mLHMy1PkklrBWdONY-Xj-35" value="Saisie informations" style="whiteSpace=wrap;strokeWidth=2;fontSize=14;fontFamily=Verdana;" vertex="1" parent="mLHMy1PkklrBWdONY-Xj-33">
          <mxGeometry x="330" y="53" width="196" height="54" as="geometry" />
        </mxCell>
        <mxCell id="mLHMy1PkklrBWdONY-Xj-36" value="Validation informations" style="whiteSpace=wrap;strokeWidth=2;fontSize=14;fontFamily=Verdana;" vertex="1" parent="mLHMy1PkklrBWdONY-Xj-33">
          <mxGeometry x="630" y="53" width="227" height="54" as="geometry" />
        </mxCell>
        <mxCell id="mLHMy1PkklrBWdONY-Xj-37" value="Acceptation CGS" style="whiteSpace=wrap;strokeWidth=2;fontSize=14;fontFamily=Verdana;" vertex="1" parent="mLHMy1PkklrBWdONY-Xj-33">
          <mxGeometry x="964" y="43" width="179" height="54" as="geometry" />
        </mxCell>
        <mxCell id="mLHMy1PkklrBWdONY-Xj-38" value="Récupération mot de passe" style="whiteSpace=wrap;strokeWidth=2;fontSize=14;fontFamily=Verdana;" vertex="1" parent="mLHMy1PkklrBWdONY-Xj-33">
          <mxGeometry x="300" y="157" width="255" height="54" as="geometry" />
        </mxCell>
        <mxCell id="mLHMy1PkklrBWdONY-Xj-39" value="Modification informations" style="whiteSpace=wrap;strokeWidth=2;fontSize=14;fontFamily=Verdana;" vertex="1" parent="mLHMy1PkklrBWdONY-Xj-33">
          <mxGeometry x="931" y="147" width="244" height="54" as="geometry" />
        </mxCell>
        <mxCell id="mLHMy1PkklrBWdONY-Xj-40" value="Suppression compte" style="whiteSpace=wrap;strokeWidth=2;fontSize=14;fontFamily=Verdana;" vertex="1" parent="mLHMy1PkklrBWdONY-Xj-33">
          <mxGeometry x="1250" y="43" width="203" height="54" as="geometry" />
        </mxCell>
        <mxCell id="mLHMy1PkklrBWdONY-Xj-41" value="" style="curved=1;startArrow=none;endArrow=block;exitX=0.68;exitY=0;entryX=0;entryY=0.5;rounded=0;fontSize=14;fontFamily=Verdana;" edge="1" parent="mLHMy1PkklrBWdONY-Xj-33" source="mLHMy1PkklrBWdONY-Xj-34" target="mLHMy1PkklrBWdONY-Xj-35">
          <mxGeometry relative="1" as="geometry">
            <Array as="points">
              <mxPoint x="263" y="80" />
            </Array>
          </mxGeometry>
        </mxCell>
        <mxCell id="mLHMy1PkklrBWdONY-Xj-42" value="" style="curved=1;startArrow=none;endArrow=block;exitX=1;exitY=0.5;entryX=0;entryY=0.5;rounded=0;fontSize=14;fontFamily=Verdana;" edge="1" parent="mLHMy1PkklrBWdONY-Xj-33" source="mLHMy1PkklrBWdONY-Xj-35" target="mLHMy1PkklrBWdONY-Xj-36">
          <mxGeometry relative="1" as="geometry">
            <Array as="points" />
          </mxGeometry>
        </mxCell>
        <mxCell id="mLHMy1PkklrBWdONY-Xj-43" value="" style="curved=1;startArrow=none;endArrow=block;exitX=1;exitY=0.36;entryX=0;entryY=0.5;rounded=0;fontSize=14;fontFamily=Verdana;" edge="1" parent="mLHMy1PkklrBWdONY-Xj-33" source="mLHMy1PkklrBWdONY-Xj-36" target="mLHMy1PkklrBWdONY-Xj-37">
          <mxGeometry relative="1" as="geometry">
            <Array as="points">
              <mxPoint x="894" y="70" />
            </Array>
          </mxGeometry>
        </mxCell>
        <mxCell id="mLHMy1PkklrBWdONY-Xj-44" value="" style="curved=1;dashed=1;dashPattern=2 3;startArrow=none;endArrow=block;exitX=1;exitY=0.5;entryX=0;entryY=0.5;rounded=0;fontSize=14;fontFamily=Verdana;" edge="1" parent="mLHMy1PkklrBWdONY-Xj-33" source="mLHMy1PkklrBWdONY-Xj-34" target="mLHMy1PkklrBWdONY-Xj-38">
          <mxGeometry relative="1" as="geometry">
            <Array as="points" />
          </mxGeometry>
        </mxCell>
        <mxCell id="mLHMy1PkklrBWdONY-Xj-45" value="" style="curved=1;dashed=1;dashPattern=2 3;startArrow=none;endArrow=block;exitX=0.84;exitY=1;entryX=0.08;entryY=0;rounded=0;fontSize=14;fontFamily=Verdana;" edge="1" parent="mLHMy1PkklrBWdONY-Xj-33" source="mLHMy1PkklrBWdONY-Xj-36" target="mLHMy1PkklrBWdONY-Xj-39">
          <mxGeometry relative="1" as="geometry">
            <Array as="points">
              <mxPoint x="894" y="132" />
            </Array>
          </mxGeometry>
        </mxCell>
        <mxCell id="mLHMy1PkklrBWdONY-Xj-46" value="" style="curved=1;startArrow=none;endArrow=block;exitX=0;exitY=0.8;entryX=0.65;entryY=1;rounded=0;fontSize=14;fontFamily=Verdana;" edge="1" parent="mLHMy1PkklrBWdONY-Xj-33" source="mLHMy1PkklrBWdONY-Xj-39" target="mLHMy1PkklrBWdONY-Xj-36">
          <mxGeometry relative="1" as="geometry">
            <Array as="points">
              <mxPoint x="894" y="195" />
            </Array>
          </mxGeometry>
        </mxCell>
        <mxCell id="mLHMy1PkklrBWdONY-Xj-47" value="" style="curved=1;dashed=1;dashPattern=2 3;startArrow=none;endArrow=block;exitX=1;exitY=0.5;entryX=0;entryY=0.5;rounded=0;fontSize=14;fontFamily=Verdana;" edge="1" parent="mLHMy1PkklrBWdONY-Xj-33" source="mLHMy1PkklrBWdONY-Xj-37" target="mLHMy1PkklrBWdONY-Xj-40">
          <mxGeometry relative="1" as="geometry">
            <Array as="points" />
          </mxGeometry>
        </mxCell>
        <mxCell id="mLHMy1PkklrBWdONY-Xj-48" value="Authentification" style="whiteSpace=wrap;strokeWidth=2;verticalAlign=top;fillColor=#dae8fc;strokeColor=#6c8ebf;fontSize=14;fontFamily=Verdana;fontStyle=1" vertex="1" parent="WIyWlLk6GJQsqaUBKTNV-1">
          <mxGeometry x="704" y="80" width="934" height="320" as="geometry" />
        </mxCell>
        <mxCell id="mLHMy1PkklrBWdONY-Xj-49" value="Authentification" style="whiteSpace=wrap;strokeWidth=2;fontSize=14;fontFamily=Verdana;" vertex="1" parent="mLHMy1PkklrBWdONY-Xj-48">
          <mxGeometry x="123" y="141.3157894736842" width="177" height="45.473684210526315" as="geometry" />
        </mxCell>
        <mxCell id="mLHMy1PkklrBWdONY-Xj-50" value="Type d&#39;utilisateur?" style="rhombus;strokeWidth=2;whiteSpace=wrap;fontSize=14;fontFamily=Verdana;" vertex="1" parent="mLHMy1PkklrBWdONY-Xj-48">
          <mxGeometry x="375.5" y="70" width="183" height="188.11" as="geometry" />
        </mxCell>
        <mxCell id="mLHMy1PkklrBWdONY-Xj-51" value="Authentification client" style="whiteSpace=wrap;strokeWidth=2;fontSize=14;fontFamily=Verdana;" vertex="1" parent="mLHMy1PkklrBWdONY-Xj-48">
          <mxGeometry x="645" y="49.99947368421052" width="255" height="58.94736842105263" as="geometry" />
        </mxCell>
        <mxCell id="mLHMy1PkklrBWdONY-Xj-52" value="Authentification commercial" style="whiteSpace=wrap;strokeWidth=2;fontSize=14;fontFamily=Verdana;" vertex="1" parent="mLHMy1PkklrBWdONY-Xj-48">
          <mxGeometry x="645" y="130.52894736842103" width="255" height="58.94736842105263" as="geometry" />
        </mxCell>
        <mxCell id="mLHMy1PkklrBWdONY-Xj-53" value="Authentification service livraison" style="whiteSpace=wrap;strokeWidth=2;fontSize=14;fontFamily=Verdana;" vertex="1" parent="mLHMy1PkklrBWdONY-Xj-48">
          <mxGeometry x="645" y="209.99842105263156" width="255" height="58.94736842105263" as="geometry" />
        </mxCell>
        <mxCell id="mLHMy1PkklrBWdONY-Xj-54" value="" style="curved=1;startArrow=none;endArrow=block;exitX=1;exitY=0.5;entryX=0;entryY=0.5;rounded=0;fontSize=14;fontFamily=Verdana;" edge="1" parent="mLHMy1PkklrBWdONY-Xj-48" source="mLHMy1PkklrBWdONY-Xj-49" target="mLHMy1PkklrBWdONY-Xj-50">
          <mxGeometry relative="1" as="geometry">
            <Array as="points" />
          </mxGeometry>
        </mxCell>
        <mxCell id="mLHMy1PkklrBWdONY-Xj-55" value="Client" style="curved=1;startArrow=none;endArrow=block;exitX=1;exitY=0.17;entryX=0;entryY=0.5;rounded=0;fontSize=14;fontFamily=Verdana;" edge="1" parent="mLHMy1PkklrBWdONY-Xj-48" source="mLHMy1PkklrBWdONY-Xj-50" target="mLHMy1PkklrBWdONY-Xj-51">
          <mxGeometry relative="1" as="geometry">
            <Array as="points">
              <mxPoint x="556" y="84.21052631578947" />
            </Array>
          </mxGeometry>
        </mxCell>
        <mxCell id="mLHMy1PkklrBWdONY-Xj-56" value="Commercial" style="curved=1;startArrow=none;endArrow=block;exitX=1;exitY=0.5;entryX=0;entryY=0.5;rounded=0;fontSize=14;fontFamily=Verdana;" edge="1" parent="mLHMy1PkklrBWdONY-Xj-48" source="mLHMy1PkklrBWdONY-Xj-50" target="mLHMy1PkklrBWdONY-Xj-52">
          <mxGeometry relative="1" as="geometry">
            <Array as="points" />
          </mxGeometry>
        </mxCell>
        <mxCell id="mLHMy1PkklrBWdONY-Xj-57" value="Livraison" style="curved=1;startArrow=none;endArrow=block;exitX=1;exitY=0.87;entryX=0;entryY=0.5;rounded=0;fontSize=14;fontFamily=Verdana;" edge="1" parent="mLHMy1PkklrBWdONY-Xj-48" source="mLHMy1PkklrBWdONY-Xj-50" target="mLHMy1PkklrBWdONY-Xj-53">
          <mxGeometry relative="1" as="geometry">
            <Array as="points">
              <mxPoint x="586" y="250" />
            </Array>
          </mxGeometry>
        </mxCell>
        <mxCell id="mLHMy1PkklrBWdONY-Xj-58" value="" style="curved=1;startArrow=none;endArrow=block;exitX=0.5;exitY=1;entryX=0.5;entryY=0;rounded=0;fontSize=14;fontFamily=Verdana;" edge="1" parent="WIyWlLk6GJQsqaUBKTNV-1" source="mLHMy1PkklrBWdONY-Xj-48" target="mLHMy1PkklrBWdONY-Xj-33">
          <mxGeometry relative="1" as="geometry">
            <Array as="points" />
          </mxGeometry>
        </mxCell>
        <mxCell id="mLHMy1PkklrBWdONY-Xj-59" value="" style="curved=1;startArrow=none;endArrow=block;exitX=0.5;exitY=1;entryX=0.5;entryY=0;rounded=0;fontSize=14;fontFamily=Verdana;" edge="1" parent="WIyWlLk6GJQsqaUBKTNV-1" source="mLHMy1PkklrBWdONY-Xj-33" target="mLHMy1PkklrBWdONY-Xj-15">
          <mxGeometry relative="1" as="geometry">
            <Array as="points" />
          </mxGeometry>
        </mxCell>
        <mxCell id="mLHMy1PkklrBWdONY-Xj-60" value="" style="curved=1;startArrow=none;endArrow=block;exitX=0.5;exitY=1;entryX=0.5;entryY=0;rounded=0;fontSize=14;fontFamily=Verdana;" edge="1" parent="WIyWlLk6GJQsqaUBKTNV-1" source="mLHMy1PkklrBWdONY-Xj-15" target="mLHMy1PkklrBWdONY-Xj-1">
          <mxGeometry relative="1" as="geometry">
            <Array as="points" />
          </mxGeometry>
        </mxCell>
      </root>
    </mxGraphModel>
  </diagram>
</mxfile>
